#!OML:ASF F:\VICON\USERDATA\INSTALL\rory3\rory3.ASF
:FULLY-SPECIFIED
:DEGREES
1048
root -9.49795 17.6507 3.05011 -5.27699 91.0492 -13.2392
lowerback 5.2622 0.225695 -2.46873
upperback 0.090158 0.294354 3.54615
thorax -2.8921 0.221714 5.04609
lowerneck -15.9727 1.02289 -5.42822
upperneck 36.6056 6.56138 -3.9611
head 15.6685 1.94883 0.568942
rclavicle 3.97569e-015 6.36111e-015
rhumerus -32.3465 -11.8888 -71.8898
rradius 33.2807
rwrist 22.7814
rhand -22.8127 5.66261
rfingers 7.12502
rthumb 3.62393 -24.2863
lclavicle 3.97569e-015 6.36111e-015
lhumerus -28.1925 1.90587 85.3053
lradius 40.358
lwrist -7.90639
lhand -13.1193 23.1951
lfingers 7.12502
lthumb 12.9782 52.7715
rfemur -30.5934 -18.3094 26.6453
rtibia 39.2961
rfoot -28.4888 -25.0199
rtoes 21.9201
lfemur -11.8808 3.3952 -22.3074
ltibia 26.624
lfoot -19.4326 5.00006
ltoes -11.2047
1049
root -9.53845 17.642 3.04332 -18.7571 91.6166 -26.6757
lowerback 5.36908 0.277809 -3.26408
upperback 0.145578 0.303168 3.40198
thorax -2.89942 0.233029 5.34897
lowerneck -15.9112 0.952596 -5.71894
upperneck 36.6433 6.47747 -3.73324
head 15.6519 1.90923 0.701141
rclavicle -3.97569e-016 2.94201e-014
rhumerus -32.0255 -11.7503 -72.2651
rradius 33.2278
rwrist 22.8955
rhand -23.1086 5.45657
rfingers 7.12502
rthumb 3.33821 -24.497
lclavicle -3.97569e-016 2.94201e-014
lhumerus -28.1403 2.10397 85.0691
lradius 40.589
lwrist -7.74513
lhand -13.1791 23.1232
lfingers 7.12502
lthumb 12.9206 52.7032
rfemur -30.9734 -18.7876 26.1514
rtibia 39.8208
rfoot -28.4519 -24.9252
rtoes 21.8603
lfemur -12.0324 3.62529 -22.7938
ltibia 26.6399
lfoot -19.3871 4.26826
ltoes -11.1964
1050
root -9.57567 17.628 3.02683 -33.8713 92.3186 -41.8953
lowerback 5.22274 0.409352 -4.41243
upperback 0.216828 0.402093 3.26623
thorax -2.76274 0.28914 5.85591
lowerneck -15.792 0.821105 -6.19313
upperneck 36.6482 6.36191 -3.51588
head 15.6041 1.83436 0.854234
rclavicle 3.57812e-015 -5.56597e-015
rhumerus -31.6173 -11.2784 -72.4521
rradius 33.2337
rwrist 22.432
rhand -23.3385 5.48549
rfingers 7.12502
rthumb 3.11624 -24.4715
lclavicle 3.57812e-015 -5.56597e-015
lhumerus -28.0111 2.29411 85.1352
lradius 40.7017
lwrist -7.60682
lhand -13.7347 23.3602
lfingers 7.12502
lthumb 12.3849 52.9734
rfemur -31.5086 -19.2037 25.2704
rtibia 40.3336
rfoot -28.4085 -24.8017
rtoes 21.6781
lfemur -12.2708 3.51684 -23.7537
ltibia 26.5917
lfoot -19.2677 4.02625
ltoes -11.345
1051
root -9.60603 17.6226 3.00864 -33.7576 92.8727 -41.8638
lowerback 4.93529 0.432692 -4.93873
upperback 0.364939 0.408479 3.17775
thorax -2.45171 0.283825 6.06315
lowerneck -15.7027 0.74155 -6.62408
upperneck 36.6048 6.287 -3.27271
head 15.5387 1.78417 1.01685
rclavicle -4.77083e-015 2.70347e-014
rhumerus -31.1337 -10.7102 -72.8776
rradius 33.334
rwrist 22.0755
rhand -23.6385 5.06786
rfingers 7.12502
rthumb 2.8265 -24.8932
lclavicle -4.77083e-015 2.70347e-014
lhumerus -27.8295 2.50752 85.0598
lradius 40.8144
lwrist -7.27722
lhand -14.3267 23.4983
lfingers 7.12502
lthumb 11.8141 53.1451
rfemur -31.9176 -19.7051 24.885
rtibia 40.7485
rfoot -28.2545 -24.7689
rtoes 21.4859
lfemur -12.4989 3.20581 -24.2239
ltibia 26.5967
lfoot -19.115 4.04179
ltoes -12.0915
1052
root -9.63124 17.6215 2.99443 -23.7947 93.2322 -31.7956
lowerback 4.8664 0.363431 -4.68851
upperback 0.496985 0.331826 3.11185
thorax -2.26314 0.233719 5.85448
lowerneck -15.5636 0.734256 -6.82504
upperneck 36.5724 6.24788 -3.05168
head 15.4718 1.778 1.13523
rclavicle 3.37934e-015 9.54166e-015
rhumerus -30.8036 -10.1547 -73.5759
rradius 33.5006
rwrist 21.8568
rhand -23.9918 4.48485
rfingers 7.12502
rthumb 2.48529 -25.4804
lclavicle 3.37934e-015 9.54166e-015
lhumerus -27.7364 2.73998 84.6439
lradius 40.8895
lwrist -6.78419
lhand -14.4407 23.2987
lfingers 7.12502
lthumb 11.7042 52.9517
rfemur -31.9661 -20.1898 25.0754
rtibia 41.0005
rfoot -28.2347 -24.8113
rtoes 21.3998
lfemur -12.5924 3.11534 -24.0119
ltibia 26.7055
lfoot -19.003 3.83531
ltoes -12.6425
1053
root -9.65726 17.6215 2.97776 -15.7368 93.6394 -23.5904
lowerback 4.9194 0.386243 -4.2638
upperback 0.580269 0.379658 2.9544
thorax -2.20915 0.249461 5.44152
lowerneck -15.4675 0.671846 -6.83699
upperneck 36.7086 6.11419 -2.86047
head 15.5062 1.74971 1.19642
rclavicle -7.7526e-015 7.15625e-015
rhumerus -30.7043 -10.0038 -74.1937
rradius 33.7432
rwrist 21.6622
rhand -24.1533 4.5225
rfingers 7.12502
rthumb 2.32927 -25.4445
lclavicle -7.7526e-015 7.15625e-015
lhumerus -27.642 2.79656 84.1924
lradius 40.8916
lwrist -6.46925
lhand -14.5227 23.4382
lfingers 7.12502
lthumb 11.6251 53.0957
rfemur -31.9171 -20.5579 25.2577
rtibia 41.1333
rfoot -28.1042 -24.9492
rtoes 21.0825
lfemur -12.6775 3.06858 -23.7815
ltibia 26.8892
lfoot -18.9812 3.61388
ltoes -12.6034
1054
root -9.68624 17.6226 2.96157 -11.8081 94.0427 -19.4911
lowerback 5.03948 0.559905 -3.9334
upperback 0.671913 0.616097 2.64347
thorax -2.20448 0.360458 4.90948
lowerneck -15.3935 0.487896 -6.53409
upperneck 36.8897 5.72177 -2.72403
head 15.5822 1.64664 1.1373
rclavicle 6.16232e-015 -3.02153e-014
rhumerus -30.7212 -10.2946 -74.7804
rradius 34.0707
rwrist 21.5231
rhand -24.2656 4.7498
rfingers 7.12502
rthumb 2.22086 -25.2184
lclavicle 6.16232e-015 -3.02153e-014
lhumerus -27.5136 2.45404 83.7243
lradius 40.9404
lwrist -6.21064
lhand -14.9511 23.8374
lfingers 7.12502
lthumb 11.2119 53.5178
rfemur -31.8238 -20.6354 25.2228
rtibia 41.2118
rfoot -27.9644 -25.319
rtoes 20.5555
lfemur -12.7294 2.7961 -23.7092
ltibia 27.0819
lfoot -19.0153 3.452
ltoes -11.4513
1055
root -9.71419 17.6254 2.94628 -11.9167 94.3668 -19.5292
lowerback 5.08911 0.765819 -3.90025
upperback 0.712599 0.880485 2.33287
thorax -2.21507 0.489058 4.54648
lowerneck -15.3093 0.301579 -6.35976
upperneck 37.0966 5.38256 -2.60369
head 15.6676 1.54794 1.10322
rclavicle -9.14409e-015 1.19271e-014
rhumerus -30.7668 -10.3147 -75.3107
rradius 34.5029
rwrist 21.3316
rhand -24.309 4.9142
rfingers 7.12502
rthumb 2.17898 -25.0544
lclavicle -9.14409e-015 1.19271e-014
lhumerus -27.4027 2.30611 83.3207
lradius 40.8671
lwrist -6.12788
lhand -15.4984 24.2569
lfingers 7.12502
lthumb 10.684 53.9653
rfemur -31.8491 -20.5291 24.9401
rtibia 41.3305
rfoot -27.8189 -25.6049
rtoes 20.7417
lfemur -12.8142 2.34483 -23.8905
ltibia 27.201
lfoot -18.98 3.51433
ltoes -10.4685
1056
root -9.73705 17.6296 2.93082 -11.4545 94.6473 -19.1536
lowerback 4.89922 0.869769 -3.91996
upperback 0.751104 1.01842 2.15942
thorax -2.08101 0.552655 4.36864
lowerneck -15.3023 0.210379 -6.43403
upperneck 37.2457 5.27308 -2.50462
head 15.7371 1.50673 1.14299
rclavicle -1.86858e-014 -1.03368e-014
rhumerus -30.5915 -9.8417 -75.8118
rradius 34.8894
rwrist 20.9492
rhand -23.9282 5.29612
rfingers 7.12502
rthumb 2.5467 -24.6684
lclavicle -1.86858e-014 -1.03368e-014
lhumerus -27.3037 2.74881 82.9144
lradius 40.7313
lwrist -6.16707
lhand -15.2406 24.2258
lfingers 7.12502
lthumb 10.9327 53.9211
rfemur -32.0778 -20.4648 24.7795
rtibia 41.4555
rfoot -27.6054 -25.8438
rtoes 21.6376
lfemur -13.0312 1.79946 -24.022
ltibia 27.256
lfoot -18.878 3.79249
ltoes -9.84371
1057
root -9.75187 17.6322 2.91462 -10.6781 94.8334 -18.3901
lowerback 4.64732 0.957371 -3.93964
upperback 0.833978 1.14027 2.0582
thorax -1.86551 0.606369 4.26935
lowerneck -15.3198 0.15217 -6.59017
upperneck 37.4695 5.25276 -2.39032
head 15.8476 1.49194 1.22103
rclavicle -2.32578e-014 -7.15625e-015
rhumerus -30.3916 -8.876 -76.4032
rradius 35.2855
rwrist 20.5833
rhand -23.8257 5.41896
rfingers 7.12502
rthumb 2.64572 -24.5444
lclavicle -2.32578e-014 -7.15625e-015
lhumerus -27.2266 3.27013 82.5297
lradius 40.5276
lwrist -6.12178
lhand -14.384 23.0206
lfingers 7.12502
lthumb 11.7588 52.6706
rfemur -32.214 -20.4357 24.6604
rtibia 41.58
rfoot -27.2754 -25.9843
rtoes 22.6821
lfemur -13.1089 1.47989 -24.1004
ltibia 27.2543
lfoot -18.7605 3.97083
ltoes -9.74219
1058
root -9.76318 17.6366 2.90038 -8.45642 95.0275 -16.1396
lowerback 4.47266 1.07869 -3.80257
upperback 0.887828 1.3134 1.99546
thorax -1.72564 0.687658 4.11794
lowerneck -15.2912 0.076292 -6.65399
upperneck 37.6045 5.21927 -2.42668
head 15.913 1.46805 1.2145
rclavicle 3.67752e-015 -7.95139e-015
rhumerus -30.3919 -7.83639 -76.9731
rradius 35.8596
rwrist 20.4059
rhand -24.1657 5.20958
rfingers 7.12502
rthumb 2.31738 -24.7576
lclavicle 3.67752e-015 -7.95139e-015
lhumerus -27.1917 3.64083 82.2129
lradius 40.3179
lwrist -6.03323
lhand -13.9299 21.9651
lfingers 7.12502
lthumb 12.1967 51.5895
rfemur -32.2537 -20.281 24.6436
rtibia 41.6845
rfoot -26.9923 -26.2291
rtoes 23.1084
lfemur -13.1222 1.22814 -24.0263
ltibia 27.2469
lfoot -18.6755 4.11991
ltoes -10.0394
1059
root -9.7778 17.6405 2.89053 -7.13902 95.3805 -14.7907
lowerback 4.4429 1.19236 -3.66676
upperback 0.887381 1.46684 1.79293
thorax -1.7162 0.762183 3.82142
lowerneck -15.0943 0.0162437 -6.46751
upperneck 37.4305 5.10829 -2.60573
head 15.7919 1.43679 1.08149
rclavicle -3.77691e-015 1.03368e-014
rhumerus -30.4136 -7.21543 -77.5413
rradius 36.359
rwrist 20.2579
rhand -23.9919 5.79364
rfingers 7.12502
rthumb 2.48514 -24.1716
lclavicle -3.77691e-015 1.03368e-014
lhumerus -27.1929 3.87458 81.7578
lradius 40.11
lwrist -5.98919
lhand -13.8057 22.9174
lfingers 7.12502
lthumb 12.3165 52.5347
rfemur -32.2713 -19.9883 24.4865
rtibia 41.7772
rfoot -26.7755 -26.5145
rtoes 23.8236
lfemur -13.1583 0.825617 -24.0219
ltibia 27.254
lfoot -18.5722 4.3471
ltoes -10.1253
1060
root -9.79951 17.6395 2.87967 -7.45326 95.6424 -14.9837
lowerback 4.62093 1.3296 -3.66846
upperback 0.912535 1.63943 1.5953
thorax -1.80037 0.848864 3.60309
lowerneck -15.0878 -0.0677334 -6.52056
upperneck 37.4843 4.9956 -2.53736
head 15.816 1.39451 1.10236
rclavicle -1.81888e-014 -2.50469e-014
rhumerus -30.3783 -6.69016 -77.9433
rradius 36.8731
rwrist 20.4642
rhand -23.1108 6.8681
rfingers 7.12502
rthumb 3.33609 -23.0855
lclavicle -1.81888e-014 -2.50469e-014
lhumerus -27.2281 4.14044 81.3444
lradius 39.9839
lwrist -5.70372
lhand -13.8342 24.0604
lfingers 7.12502
lthumb 12.289 53.6793
rfemur -32.219 -19.5554 24.1391
rtibia 41.8894
rfoot -26.5904 -26.6464
rtoes 25.3825
lfemur -13.1049 0.484925 -24.1436
ltibia 27.2536
lfoot -18.5514 4.58766
ltoes -9.83438
